<svg width="25" height="24" viewBox="0 0 25 24" fill="none" xmlns="http://www.w3.org/2000/svg">
<path d="M24.8718 18.4795C24.9328 18.6918 24.9634 18.889 24.9636 19.071C24.9637 19.2227 24.9029 19.3896 24.7813 19.5717C24.6901 19.7538 24.5685 19.9056 24.4163 20.027C24.1121 20.2699 23.7773 20.3916 23.412 20.3918C22.6813 20.3924 22.1939 20.0895 21.9499 19.4829L14.9597 2.96164L7.61429 17.3927L5.06502 22.7122C4.85239 23.3191 4.42642 23.6228 3.78708 23.6233C3.1173 23.6239 2.6452 23.3512 2.37077 22.8054C2.27929 22.6234 2.23349 22.4566 2.23337 22.305C2.23322 22.1229 2.26351 21.9257 2.32422 21.7133L12.0392 2.73255C12.6164 1.15463 13.3159 0.274332 14.1378 0.0916631C14.3813 0.0307977 14.6552 0.000243832 14.9597 1.59764e-06C15.599 -0.000507094 16.071 0.120461 16.3756 0.362905C16.9545 0.878153 17.4422 1.6665 17.8389 2.72794L24.8718 18.4795Z" fill="#EAEDFA"/>
<path d="M24.455 18.0117C24.6241 18.1545 24.7593 18.3015 24.8609 18.4528C24.9455 18.5789 24.988 18.7514 24.9883 18.9701C25.014 19.172 24.9973 19.3655 24.9385 19.5507C24.8209 19.921 24.6103 20.2074 24.3066 20.4098C23.6993 20.8146 23.1251 20.8323 22.5842 20.463C18.1799 17.8494 11.3959 13.6685 11.3959 13.6685C11.3959 13.6685 12.7732 12.3038 13.2401 11.0213L24.455 18.0117Z" fill="#EAEDFA"/>
<path d="M11.4938 13.7778C11.326 13.6335 11.2064 13.3673 11.1063 13.2152C11.0228 13.0883 10.9819 12.9154 10.9835 12.6967C10.9598 12.4946 10.9782 12.3012 11.0387 12.1166C11.1597 11.7473 11.3729 11.4629 11.6784 11.2632C12.2893 10.864 12.9509 10.7248 13.4884 11.099L15.3852 12.3723L13.2452 14.8148L11.4938 13.7778Z" fill="#EAEDFA"/>
<path d="M7.77666 10.2652C7.90509 10.0847 4.38516 9.72939 4.52784 9.61546C4.64674 9.52052 6.05326 9.35622 8.73367 9.56238C8.8204 9.56243 9.08455 9.61094 9.27472 9.65402C9.65506 9.74019 9.95935 9.92607 10.1875 10.2117C10.6438 10.7831 10.0127 11.682 9.68921 12.2522C1.45082 9.5006 0.205121 17.0101 4.75201 23.2667C4.75201 23.2667 3.62544 24.6541 2.23706 23.6122C-3.05888 14.3268 1.96738 7.30287 7.77666 10.2652Z" fill="#EAEDFA"/>
</svg>
