<svg width="145" height="139" viewBox="0 0 145 139" fill="none" xmlns="http://www.w3.org/2000/svg">
<path d="M143.399 106.925C143.751 108.154 143.927 109.294 143.928 110.348C143.929 111.225 143.578 112.191 142.877 113.245C142.351 114.298 141.65 115.176 140.773 115.879C139.019 117.285 137.088 117.988 134.982 117.99C130.769 117.994 127.96 116.24 126.552 112.731L86.2502 17.1365L43.9002 100.636L29.2023 131.416C27.9764 134.928 25.5205 136.685 21.8344 136.688C17.9728 136.691 15.2509 135.113 13.6686 131.955C13.1412 130.903 12.8771 129.937 12.8764 129.06C12.8756 128.007 13.0502 126.865 13.4002 125.636L69.4123 15.8109C72.74 6.68084 76.773 1.58733 81.5114 0.530376C82.9153 0.1782 84.4949 0.00141085 86.2502 9.24415e-06C89.9363 -0.00293412 92.6575 0.697003 94.4139 2.09982C97.7513 5.08112 100.563 9.64259 102.85 15.7842L143.399 106.925Z" fill="#4DDBFF"/>
<path d="M141.56 103.084C142.535 103.91 143.315 104.761 143.9 105.637C144.388 106.366 144.633 107.364 144.635 108.63C144.783 109.798 144.687 110.918 144.348 111.989C143.669 114.132 142.455 115.789 140.705 116.96C137.203 119.302 133.893 119.405 130.774 117.268C105.381 102.145 66.2678 77.954 66.2678 77.954C66.2678 77.954 74.2083 70.0574 76.9002 62.6365L141.56 103.084Z" fill="#FF66F2"/>
<path d="M66.8319 78.5863C65.8646 77.7514 65.1752 76.2114 64.5977 75.3308C64.1164 74.5969 63.8805 73.5965 63.8901 72.3308C63.753 71.1615 63.8591 70.0428 64.2079 68.9745C64.9057 66.8378 66.1348 65.1917 67.896 64.0367C71.4186 61.7267 75.2326 60.921 78.3319 63.0863L89.2678 70.454L76.9299 84.5863L66.8319 78.5863Z" fill="#FF66F2"/>
<path d="M44.8365 59.3961C45.577 58.3516 25.2828 56.2957 26.1053 55.6365C26.7909 55.0871 34.9002 54.1365 50.3541 55.3294C50.8542 55.3297 52.3772 55.6103 53.4736 55.8596C55.6665 56.3582 57.4208 57.4337 58.7362 59.0867C61.3669 62.3928 57.7284 67.5938 55.8633 70.8932C8.36474 54.9719 1.18263 98.4232 27.3978 134.625C27.3978 134.625 20.9026 142.652 12.8978 136.624C-17.636 82.8967 11.343 42.2555 44.8365 59.3961Z" fill="#793FFF"/>
</svg>
